<svg version="1.1" xmlns="http://www.w3.org/2000/svg" xmlns:xlink="http://www.w3.org/1999/xlink" width="45.000000pt" height="40.000000pt" viewBox="0,0,256,227.54688"><g fill="#ffc800" fill-rule="nonzero" stroke="none" stroke-width="1" stroke-linecap="butt" stroke-linejoin="miter" stroke-miterlimit="10" stroke-dasharray="" stroke-dashoffset="0" font-family="none" font-weight="none" font-size="none" text-anchor="none" style="mix-blend-mode: normal"><g transform="translate(-8.89487,-0.50692) scale(5.68889,5.68889)"><g transform="translate(0,40) scale(0.1,-0.1)"><path d="M46,211c-4,-105 -5,-195 -1,-201c9,-15 45,-12 51,4c3,8 2,97 -3,198c-7,155 -10,183 -24,186c-14,3 -17,-21 -23,-187zM80,94c0,-64 -3,-85 -12,-82c-8,3 -14,29 -16,73c-3,72 1,95 18,95c6,0 10,-34 10,-86z"></path><path d="M105,295c0,-69 3,-95 13,-95c9,0 12,26 12,95c0,69 -3,95 -12,95c-10,0 -13,-26 -13,-95z"></path><path d="M227,363c-4,-3 -7,-19 -7,-34c0,-15 -4,-31 -10,-34c-6,-4 -10,8 -10,29c0,20 -5,36 -11,36c-7,0 -9,-12 -5,-32c20,-117 4,-198 -48,-232c-33,-21 -36,-70 -5,-86c16,-9 26,-8 45,5c22,14 24,22 24,91c0,48 4,73 10,69c6,-3 10,-39 10,-79c0,-76 9,-96 45,-96c54,0 59,50 9,101c-45,47 -56,93 -43,187c10,72 9,89 -4,75zM180,55c0,-31 -26,-43 -46,-23c-20,20 -7,48 22,48c19,0 24,-5 24,-25zM290,61c7,-15 6,-23 -5,-35c-28,-27 -69,10 -44,40c16,20 37,17 49,-5z"></path><path d="M311,277c-14,-17 -4,-47 15,-47c22,0 29,29 12,46c-13,13 -16,13 -27,1z"></path><path d="M372,278c-17,-17 -15,-48 3,-48c22,0 38,35 22,49c-10,8 -17,7 -25,-1z"></path><path d="M262,228c2,-12 11,-24 21,-26c14,-3 18,1 15,20c-2,12 -11,24 -21,26c-14,3 -18,-1 -15,-20z"></path><path d="M412,238c-18,-18 -15,-40 6,-36c9,2 18,13 20,26c4,24 -7,29 -26,10z"></path><path d="M302,198c-7,-7 -12,-25 -12,-41c0,-24 3,-28 18,-21c18,8 56,9 81,3c22,-6 25,30 5,52c-19,21 -73,26 -92,7z"></path></g></g></g></svg>